<svg xmlns="http://www.w3.org/2000/svg" width="234.241" height="221.573" viewBox="0 0 234.241 221.573">
  <g id="Group_101080" data-name="Group 101080" transform="translate(-69.5 -237.394)">
    <g id="Group_88700" data-name="Group 88700" transform="translate(69.5 237.394)">
      <g id="Search-rafiki_1_" data-name="Search-rafiki (1)" transform="translate(0 0)">
        <g id="freepik--speech-bubbles--inject-8" transform="translate(85.556 27.693)">
          <rect id="Rectangle_896" data-name="Rectangle 896" width="79.972" height="31.088" rx="9.37" transform="translate(68.713 7.248)" fill="#6dc5cb"/>
          <rect id="Rectangle_897" data-name="Rectangle 897" width="54.695" height="3.477" rx="1.64" transform="translate(75.38 12.491)" fill="#4594c9"/>
          <rect id="Rectangle_898" data-name="Rectangle 898" width="38.083" height="3.477" rx="1.64" transform="translate(75.38 20.869)" fill="#4594c9"/>
          <rect id="Rectangle_899" data-name="Rectangle 899" width="28.474" height="3.477" rx="1.64" transform="translate(75.38 29.247)" fill="#4594c9"/>
          <rect id="Rectangle_900" data-name="Rectangle 900" width="28.474" height="3.477" rx="1.64" transform="translate(107.885 29.247)" fill="#4594c9"/>
          <g id="Group_88554" data-name="Group 88554" transform="translate(75.38 12.491)">
            <rect id="Rectangle_901" data-name="Rectangle 901" width="54.695" height="3.477" rx="1.64" transform="translate(0 0)" fill="#fff"/>
            <rect id="Rectangle_902" data-name="Rectangle 902" width="38.083" height="3.477" rx="1.64" transform="translate(0 8.378)" fill="#fff"/>
            <rect id="Rectangle_903" data-name="Rectangle 903" width="28.474" height="3.477" rx="1.64" transform="translate(0 16.756)" fill="#fff"/>
            <rect id="Rectangle_904" data-name="Rectangle 904" width="28.474" height="3.477" rx="1.64" transform="translate(32.505 16.756)" fill="#fff"/>
          </g>
          <rect id="Rectangle_905" data-name="Rectangle 905" width="95.024" height="45.585" rx="13.74" transform="translate(2.868)" fill="#6dc5cb"/>
          <rect id="Rectangle_906" data-name="Rectangle 906" width="80.191" height="5.099" rx="2.41" transform="translate(12.642 7.687)" fill="#4594c9"/>
          <rect id="Rectangle_907" data-name="Rectangle 907" width="55.831" height="5.099" rx="2.41" transform="translate(12.642 19.973)" fill="#4594c9"/>
          <rect id="Rectangle_908" data-name="Rectangle 908" width="41.745" height="5.099" rx="2.41" transform="translate(12.642 32.259)" fill="#4594c9"/>
          <rect id="Rectangle_909" data-name="Rectangle 909" width="35.332" height="5.099" rx="2.41" transform="translate(60.301 32.259)" fill="#4594c9"/>
          <g id="Group_88555" data-name="Group 88555" transform="translate(12.642 7.687)">
            <rect id="Rectangle_910" data-name="Rectangle 910" width="80.191" height="5.099" rx="2.41" fill="#fff"/>
            <rect id="Rectangle_911" data-name="Rectangle 911" width="55.831" height="5.099" rx="2.41" transform="translate(0 12.286)" fill="#fff"/>
            <rect id="Rectangle_912" data-name="Rectangle 912" width="41.745" height="5.099" rx="2.41" transform="translate(0 24.572)" fill="#fff"/>
            <rect id="Rectangle_913" data-name="Rectangle 913" width="35.332" height="5.099" rx="2.41" transform="translate(47.659 24.572)" fill="#fff"/>
          </g>
          <rect id="Rectangle_914" data-name="Rectangle 914" width="45.496" height="63.778" rx="6.42" transform="translate(0 53.847)" fill="#6dc5cb"/>
          <rect id="Rectangle_916" data-name="Rectangle 916" width="34.962" height="2.827" rx="1.18" transform="translate(5.263 60.5)" fill="#fafafa"/>
          <rect id="Rectangle_917" data-name="Rectangle 917" width="24.346" height="2.827" rx="1.18" transform="translate(5.263 67.303)" fill="#fafafa"/>
          <rect id="Rectangle_918" data-name="Rectangle 918" width="34.962" height="2.827" rx="1.18" transform="translate(5.263 74.113)" fill="#fafafa"/>
          <rect id="Rectangle_919" data-name="Rectangle 919" width="14.011" height="2.827" rx="1.18" transform="translate(5.263 80.917)" fill="#fafafa"/>
          <rect id="Rectangle_920" data-name="Rectangle 920" width="14.011" height="2.827" rx="1.18" transform="translate(22.608 80.917)" fill="#fafafa"/>
          <rect id="Rectangle_921" data-name="Rectangle 921" width="34.962" height="2.827" rx="1.18" transform="translate(5.263 87.727)" fill="#fafafa"/>
          <rect id="Rectangle_922" data-name="Rectangle 922" width="34.962" height="2.827" rx="1.18" transform="translate(5.263 94.531)" fill="#fafafa"/>
          <rect id="Rectangle_923" data-name="Rectangle 923" width="29.048" height="2.827" rx="1.18" transform="translate(5.263 101.341)" fill="#fafafa"/>
          <rect id="Rectangle_924" data-name="Rectangle 924" width="14.415" height="2.827" rx="1.18" transform="translate(5.263 108.145)" fill="#fafafa"/>
          <rect id="Rectangle_927" data-name="Rectangle 927" width="45.749" height="72.122" rx="7.26" transform="translate(147.444 49.815) rotate(90)" fill="#6dc5cb"/>
          <g id="Group_88699" data-name="Group 88699" transform="translate(79.702 62.573)">
            <rect id="Rectangle_901-2" data-name="Rectangle 901" width="54.695" height="3.477" rx="1.64" transform="translate(0 0)" fill="#fff"/>
            <rect id="Rectangle_902-2" data-name="Rectangle 902" width="38.083" height="3.477" rx="1.64" transform="translate(0 8.378)" fill="#fff"/>
            <rect id="Rectangle_903-2" data-name="Rectangle 903" width="28.474" height="3.477" rx="1.64" transform="translate(0 16.756)" fill="#fff"/>
            <rect id="Rectangle_904-2" data-name="Rectangle 904" width="28.474" height="3.477" rx="1.64" transform="translate(32.505 16.756)" fill="#fff"/>
          </g>
        </g>
        <g id="freepik--Character--inject-8" transform="translate(0 0)">
          <path id="Path_5100" data-name="Path 5100" d="M124.276,192.7c-.6,1.369-1.266,2.847-1.848,4.292s-1.184,2.93-1.711,4.408a62.524,62.524,0,0,0-2.594,8.85l-.2,1.1-.068.411a1.421,1.421,0,0,1-.041.4,16.79,16.79,0,0,0,.041,2,40.323,40.323,0,0,0,.684,4.538c.575,3.1,1.307,6.3,2.053,9.446l-3.511,1.369a63.415,63.415,0,0,1-4.168-9.3,39.014,39.014,0,0,1-1.451-5.113,18.351,18.351,0,0,1-.383-2.916v-.828a4.1,4.1,0,0,1,.048-.814l.137-1.369a43.123,43.123,0,0,1,.938-5.236c.383-1.711.876-3.374,1.369-5.017s1.109-3.258,1.759-4.846c.322-.794.684-1.581,1-2.368a26.232,26.232,0,0,1,1.123-2.382Z" transform="translate(-94.559 -124.604)" fill="#e4897b"/>
          <path id="Path_5101" data-name="Path 5101" d="M122.9,244.69l2.669,2.608-5.825,2.738a5.859,5.859,0,0,1-.431-4.7Z" transform="translate(-97.047 -142.076)" fill="#e4897b"/>
          <path id="Path_5102" data-name="Path 5102" d="M128.084,252.381l-4.921,2.012-3.053-3.183,5.818-2.71Z" transform="translate(-97.408 -143.278)" fill="#e4897b"/>
          <path id="Path_5106" data-name="Path 5106" d="M204.09,134.15l-.65-.219a60.013,60.013,0,0,1,4.23-9.617l.6.329A59.5,59.5,0,0,0,204.09,134.15Zm8.309-15.975-.554-.4a59.343,59.343,0,0,1,21.472-17.94l.308.616A58.686,58.686,0,0,0,212.4,118.2Zm75.01-16.79a57.228,57.228,0,0,0-6.927-3.142l.246-.643a58.6,58.6,0,0,1,7,3.2Z" transform="translate(-123.702 -95.663)" fill="#4594c9"/>
          <path id="Path_5107" data-name="Path 5107" d="M204.09,134.15l-.65-.219a60.013,60.013,0,0,1,4.23-9.617l.6.329A59.5,59.5,0,0,0,204.09,134.15Zm8.309-15.975-.554-.4a59.343,59.343,0,0,1,21.472-17.94l.308.616A58.686,58.686,0,0,0,212.4,118.2Zm75.01-16.79a57.228,57.228,0,0,0-6.927-3.142l.246-.643a58.6,58.6,0,0,1,7,3.2Z" transform="translate(-123.702 -95.663)" opacity="0.3"/>
          <path id="Path_5108" data-name="Path 5108" d="M279.951,126.919a56.81,56.81,0,0,0-104.483,44.305c-4.572,1.6-9.09,3.32-13.58,5.092q-9.713,3.854-19.247,8.049c-6.352,2.813-12.676,5.681-18.939,8.679-3.142,1.472-6.242,3.025-9.37,4.531a13.545,13.545,0,0,0-4.339,2.977,13.105,13.105,0,0,0-1.759,2.307,11.807,11.807,0,0,0-1.369,3.169,8.706,8.706,0,0,0,5.017,10.164,12.018,12.018,0,0,0,3.326.862,12.919,12.919,0,0,0,2.909,0,13.524,13.524,0,0,0,5-1.636c3.1-1.567,6.222-3.08,9.3-4.689,6.16-3.142,12.32-6.42,18.405-9.747S163,194.174,168.938,190.6c4.107-2.485,8.255-5.024,12.32-7.68a56.81,56.81,0,0,0,98.706-56Zm-31.116,65.387A44.853,44.853,0,1,1,269.2,132.224,44.853,44.853,0,0,1,248.835,192.306Z" transform="translate(-93.143 -94.77)" fill="#6dc5cb"/>
          <path id="Path_5109" data-name="Path 5109" d="M279.951,126.919a56.81,56.81,0,0,0-104.483,44.305c-4.572,1.6-9.09,3.32-13.58,5.092q-9.713,3.854-19.247,8.049c-6.352,2.813-12.676,5.681-18.939,8.679-3.142,1.472-6.242,3.025-9.37,4.531a13.545,13.545,0,0,0-4.339,2.977,13.105,13.105,0,0,0-1.759,2.307,11.807,11.807,0,0,0-1.369,3.169,8.706,8.706,0,0,0,5.017,10.164,12.018,12.018,0,0,0,3.326.862,12.919,12.919,0,0,0,2.909,0,13.524,13.524,0,0,0,5-1.636c3.1-1.567,6.222-3.08,9.3-4.689,6.16-3.142,12.32-6.42,18.405-9.747S163,194.174,168.938,190.6c4.107-2.485,8.255-5.024,12.32-7.68a56.81,56.81,0,0,0,98.706-56Zm-31.116,65.387A44.853,44.853,0,1,1,269.2,132.224,44.853,44.853,0,0,1,248.835,192.306Z" transform="translate(-94.14 -94.442)" opacity="0.3"/>
          <path id="Path_5110" data-name="Path 5110" d="M158,158.212c0,.4.212.732.479.732s.479-.329.479-.732-.212-.732-.479-.732S158,157.836,158,158.212Z" transform="translate(-109.364 -114.558)" fill="#263238"/>
          <path id="Path_5111" data-name="Path 5111" d="M158.28,159.62a14.6,14.6,0,0,0,1.937,3.47,2.334,2.334,0,0,1-1.937.363Z" transform="translate(-109.452 -115.233)" fill="#de5753"/>
          <path id="Path_5112" data-name="Path 5112" d="M155.819,154.841a.253.253,0,0,1-.2-.1.246.246,0,0,1,.055-.335,2.348,2.348,0,0,1,2.142-.363.24.24,0,1,1-.171.445,1.869,1.869,0,0,0-1.691.308A.246.246,0,0,1,155.819,154.841Z" transform="translate(-108.6 -113.438)" fill="#263238"/>
          <path id="Path_5113" data-name="Path 5113" d="M137.276,163c.684,3.676,1.437,10.417-1.136,12.875,0,0,1.006,3.73,7.844,3.73,7.529,0,3.587-3.73,3.587-3.73-4.107-.986-3.99-4.025-3.279-6.886Z" transform="translate(-102.466 -116.299)" fill="#e4897b"/>
          <path id="Path_5114" data-name="Path 5114" d="M131.394,182.19c.814-1.266-.554-4.339-.554-4.339s12.1-3.046,17.05,1.629c1.027.965-.11,2.389-.11,2.389Z" transform="translate(-100.794 -120.678)" fill="#6dc5cb"/>
          <path id="Path_5116" data-name="Path 5116" d="M101.488,387.91c-.637,0-1.656-1.061-1.958-1.458a.116.116,0,0,1,0-.13.123.123,0,0,1,.11-.062c.075,0,1.752.151,2.211.746a.555.555,0,0,1,.11.452.493.493,0,0,1-.356.445ZM99.9,386.541c.5.575,1.3,1.225,1.643,1.143,0,0,.137-.034.178-.253a.308.308,0,0,0-.068-.26,3.2,3.2,0,0,0-1.752-.643Z" transform="translate(-90.908 -186.747)" fill="#6dc5cb"/>
          <path id="Path_5117" data-name="Path 5117" d="M99.969,386.057a1.829,1.829,0,0,1-.37,0,.11.11,0,0,1-.1-.075.137.137,0,0,1,0-.123c.048-.041,1.054-1.088,1.814-1.088h0a.643.643,0,0,1,.486.205.39.39,0,0,1,.1.479C101.7,385.838,100.653,386.057,99.969,386.057Zm-.089-.24c.684,0,1.677-.212,1.841-.513,0,0,.048-.089-.062-.2a.4.4,0,0,0-.315-.13h0A2.9,2.9,0,0,0,99.88,385.817Z" transform="translate(-90.901 -186.277)" fill="#6dc5cb"/>
          <path id="Path_5118" data-name="Path 5118" d="M167.635,410.8a9.068,9.068,0,0,1-1.547-.144.11.11,0,0,1-.089-.109.123.123,0,0,1,.055-.123c.075-.041,1.827-1.047,2.669-.814a.588.588,0,0,1,.376.274.452.452,0,0,1,0,.52C168.9,410.716,168.279,410.8,167.635,410.8Zm-1.157-.322c.931.137,2.2.13,2.437-.2.034-.041.062-.116,0-.26a.383.383,0,0,0-.233-.171A4.294,4.294,0,0,0,166.478,410.483Z" transform="translate(-111.888 -194.105)" fill="#6dc5cb"/>
          <path id="Path_5119" data-name="Path 5119" d="M166.115,410.128a.124.124,0,0,1-.068,0,.11.11,0,0,1-.048-.116,3.34,3.34,0,0,1,.78-1.937.856.856,0,0,1,.684-.2.4.4,0,0,1,.445.329c.089.568-1.109,1.656-1.718,1.93Zm1.225-2.053a.623.623,0,0,0-.411.151,2.738,2.738,0,0,0-.684,1.554c.616-.376,1.437-1.225,1.369-1.567,0,0,0-.116-.233-.137Z" transform="translate(-111.887 -193.564)" fill="#6dc5cb"/>
          <path id="Path_5120" data-name="Path 5120" d="M158.09,405.623h5.031l.5-11.643H158.59Z" transform="translate(-109.392 -189.183)" fill="#e4897b"/>
          <path id="Path_5121" data-name="Path 5121" d="M92.64,378.174l4.2,2.752,9.281-7.837-4.209-2.758Z" transform="translate(-88.74 -181.72)" fill="#e4897b"/>
          <path id="Path_5122" data-name="Path 5122" d="M95.736,383.734l-4.367-3.58a.431.431,0,0,0-.548,0l-3.6,2.827a.739.739,0,0,0,0,1.157c1.547,1.225,2.361,1.745,4.285,3.32,1.184.965,4.107,3.922,5.756,5.257s3.162-.1,2.615-.794a17.244,17.244,0,0,1-3.7-7.426A1.239,1.239,0,0,0,95.736,383.734Z" transform="translate(-86.943 -184.789)" fill="#263238"/>
          <path id="Path_5123" data-name="Path 5123" d="M162.2,410.14h-5.476a.445.445,0,0,0-.431.342l-.992,4.47a.732.732,0,0,0,.725.9c1.978-.034,4.839-.151,7.331-.151,2.909,0,5.428.157,8.836.157,2.053,0,2.642-2.088,1.773-2.272-3.929-.862-7.146-.951-10.541-3.053A2.355,2.355,0,0,0,162.2,410.14Z" transform="translate(-108.507 -194.282)" fill="#263238"/>
          <path id="Path_5124" data-name="Path 5124" d="M118.5,183.74c-4.36,2.053-6.845,15.811-6.845,15.811l10.657,4.25a79.277,79.277,0,0,0,3.771-11.738C127.553,185.725,122.967,181.618,118.5,183.74Z" transform="translate(-94.742 -122.666)" fill="#263238"/>
          <path id="Path_5125" data-name="Path 5125" d="M127.907,195.063c-2.635,2.669-3.84,7.9-4.367,11.3l2.553,1.02a79.879,79.879,0,0,0,3.7-11.4C129.563,194.536,129,193.954,127.907,195.063Z" transform="translate(-98.491 -126.234)" fill="#203048"/>
          <path id="Path_5126" data-name="Path 5126" d="M151.156,183.141s5.352,6.051.3,43.463H124.564c-.185-4.107,2.409-24.264-1.574-43.717a68.833,68.833,0,0,1,9-1.136,96.42,96.42,0,0,1,11.43,0A50.788,50.788,0,0,1,151.156,183.141Z" transform="translate(-98.317 -122.163)" fill="#263238"/>
          <path id="Path_5127" data-name="Path 5127" d="M165.133,201.48l-4.531-7.81a39.91,39.91,0,0,0-1.061,11.136c.123,2.683,2.58,12.621,4.791,14.073A158,158,0,0,0,165.133,201.48Z" transform="translate(-109.837 -125.977)" fill="#203048"/>
          <path id="Path_5128" data-name="Path 5128" d="M165.2,191.67c.684,3.326,1.369,6.735,2.1,10.075s1.492,6.694,2.375,9.932c.226.8.438,1.622.684,2.389l.185.589.089.294v-.034c-.048-.062-.1-.068-.062,0a2.293,2.293,0,0,0,1.04.65,12.207,12.207,0,0,0,1.992.554,53.243,53.243,0,0,0,9.788.637l.65,3.723c-.917.294-1.773.507-2.676.719s-1.793.39-2.7.527a29.247,29.247,0,0,1-5.7.383,15.479,15.479,0,0,1-3.149-.411,9.165,9.165,0,0,1-3.614-1.677,6.6,6.6,0,0,1-1.691-2.053c-.109-.205-.205-.438-.294-.637l-.123-.322-.253-.684c-.349-.869-.637-1.725-.951-2.58-1.157-3.422-2.122-6.879-2.971-10.329s-1.581-6.893-2.19-10.431Z" transform="translate(-109.279 -125.346)" fill="#e4897b"/>
          <path id="Path_5129" data-name="Path 5129" d="M154.226,187.39c-1.417,4.593,4.326,18.289,4.326,18.289l11.437-2.875a41.433,41.433,0,0,0-3.046-12.765C163.015,181.524,155.924,181.88,154.226,187.39Z" transform="translate(-108.102 -122.743)" fill="#263238"/>
          <path id="Path_5130" data-name="Path 5130" d="M193.582,228.254l5.695-.144-2.738,5.927s-2.32.308-4.223-2.82l-2.005-2.4,2.307-.459A5.146,5.146,0,0,1,193.582,228.254Z" transform="translate(-119.559 -136.844)" fill="#e4897b"/>
          <path id="Path_5131" data-name="Path 5131" d="M205.741,229.212l-3.258,4.914-3.073-.089,2.738-5.927Z" transform="translate(-122.431 -136.844)" fill="#e4897b"/>
          <path id="Path_5132" data-name="Path 5132" d="M163.731,393.98l-.26,6H158.44l.26-6Z" transform="translate(-109.503 -189.183)" fill="#ce6f64"/>
          <path id="Path_5133" data-name="Path 5133" d="M103.984,370.33l4.209,2.758-4.791,4.038-4.2-2.752Z" transform="translate(-90.81 -181.72)" fill="#ce6f64"/>
          <path id="Path_5134" data-name="Path 5134" d="M138.253,153.911c.3,4.976.226,7.912,2.738,10.465,3.778,3.853,9.932,1.574,11.122-3.422,1.075-4.476.4-11.869-4.47-13.853a6.845,6.845,0,0,0-9.391,6.81Z" transform="translate(-103.128 -111.126)" fill="#e4897b"/>
          <path id="Path_5135" data-name="Path 5135" d="M129.628,150.449c1.239,4.538,4.155,9.767,7.926,10.1,4.682.411,6.8-4.428,7.413-9.425,2.806-1.923,1.335-4.038,4.148-4.305,3.614-.342,2.457-6.954-2.3-8.015,0,0,1.595,2.977-1.752,1.472a19.315,19.315,0,0,0-10.226-1.773s4.271,2.136.1,3.087-5.421,3.525-3.5,5.079A2.9,2.9,0,0,0,129.628,150.449Z" transform="translate(-100.362 -108.54)" fill="#263238"/>
          <path id="Path_5136" data-name="Path 5136" d="M147.938,157.522a5.626,5.626,0,0,0,1.417,3.333c1.1,1.212,2.238.459,2.43-1.013.178-1.321-.185-3.546-1.526-4.216S147.849,156.03,147.938,157.522Z" transform="translate(-106.187 -113.908)" fill="#e4897b"/>
          <path id="Path_5137" data-name="Path 5137" d="M133.856,247.357s4.9,35.489,1.04,49.712c-6.119,22.519-29.514,41.526-29.514,41.526l-7.933-5.2s19.925-16.051,22.361-34.908c2.19-16.927-3.306-37.4-3.306-51.136Z" transform="translate(-90.258 -142.915)" fill="#6dc5cb"/>
          <path id="Path_5139" data-name="Path 5139" d="M151.622,275.107A33.132,33.132,0,0,0,147.33,271c.835,11.519,1.52,28.583.76,40.7a52.311,52.311,0,0,0,2.546-7.166C152.518,297.591,152.32,285.593,151.622,275.107Z" transform="translate(-105.997 -150.378)" fill="#6dc5cb"/>
          <path id="Path_5140" data-name="Path 5140" d="M151.622,275.107A33.132,33.132,0,0,0,147.33,271c.835,11.519,1.52,28.583.76,40.7a52.311,52.311,0,0,0,2.546-7.166C152.518,297.591,152.32,285.593,151.622,275.107Z" transform="translate(-105.997 -150.378)" opacity="0.3"/>
          <path id="Path_5141" data-name="Path 5141" d="M108.3,375.353c.034,0-3.073,2.053-3.073,2.053l-8.665-5.681L99.3,369.46Z" transform="translate(-89.977 -181.446)" fill="#6dc5cb"/>
          <path id="Path_5142" data-name="Path 5142" d="M108.3,375.353c.034,0-3.073,2.053-3.073,2.053l-8.665-5.681L99.3,369.46Z" transform="translate(-89.977 -181.446)" opacity="0.3"/>
          <path id="Path_5143" data-name="Path 5143" d="M156.43,247.36s7.57,32.1,8.1,47.44c.6,17.194-5.4,57.755-5.4,57.755h-8.521s-1.047-40.876-1.424-56.537c-.418-17.077-10.438-48.658-10.438-48.658Z" transform="translate(-103.29 -142.918)" fill="#6dc5cb"/>
          <path id="Path_5145" data-name="Path 5145" d="M165.792,396.1c.041,0-.479,3.532-.479,3.532H154.951l-.281-3.155Z" transform="translate(-108.313 -189.852)" fill="#6dc5cb"/>
          <path id="Path_5146" data-name="Path 5146" d="M165.792,396.1c.041,0-.479,3.532-.479,3.532H154.951l-.281-3.155Z" transform="translate(-108.313 -189.852)" opacity="0.3"/>
        </g>
      </g>
      <path id="Path_5679" data-name="Path 5679" d="M133.856,247.357s4.9,35.489,1.04,49.712c-6.119,22.519-29.514,41.526-29.514,41.526l-7.933-5.2s19.925-16.051,22.361-34.908c2.19-16.927-3.306-37.4-3.306-51.136Z" transform="translate(-90.258 -142.915)" opacity="0.1"/>
      <path id="Path_5680" data-name="Path 5680" d="M156.43,247.36s7.57,32.1,8.1,47.44c.6,17.194-5.4,57.755-5.4,57.755h-8.521s-1.047-40.876-1.424-56.537c-.418-17.077-10.438-48.658-10.438-48.658Z" transform="translate(-103.29 -142.918)" opacity="0.1"/>
      <path id="Path_5681" data-name="Path 5681" d="M131.394,182.19c.814-1.266-.554-4.339-.554-4.339s12.1-3.046,17.05,1.629c1.027.965-.11,2.389-.11,2.389Z" transform="translate(-100.794 -120.678)" opacity="0.1"/>
    </g>
    <path id="Path_5682" data-name="Path 5682" d="M257.224,204.772A49.281,49.281,0,1,1,311.7,161.261,49.281,49.281,0,0,1,257.224,204.772Z" transform="translate(-57.356 141.918)" fill="#fafafa" opacity="0.4"/>
    <path id="Path_5683" data-name="Path 5683" d="M293.175,118.142l-74.948,59.883c-.315-.684-.623-1.369-.91-2.053a48.762,48.762,0,0,1-3.566-14.018h0l64.736-51.725A48.7,48.7,0,0,1,293.175,118.142Z" transform="translate(-57.455 140.746)" fill="#fafafa" opacity="0.4"/>
    <path id="Path_5684" data-name="Path 5684" d="M314.759,151.017l-70.465,56.3a49.185,49.185,0,0,1-16.954-14.565l76.94-61.478A49.282,49.282,0,0,1,314.759,151.017Z" transform="translate(-61.743 134.106)" fill="#fafafa" opacity="0.4"/>
  </g>
</svg>
