<svg xmlns="http://www.w3.org/2000/svg" width="30.414" height="21" viewBox="0 0 30.414 21">
  <g id="Group_89095" data-name="Group 89095" transform="translate(-1.5 -5)">
    <g id="Group_89095-2" data-name="Group 89095" transform="translate(1.5 5)">
      <path id="Path_37288" data-name="Path 37288" d="M13.494,14.655A4.828,4.828,0,1,0,8.667,9.828,4.828,4.828,0,0,0,13.494,14.655Zm0-1.448a3.379,3.379,0,1,0-3.379-3.379A3.379,3.379,0,0,0,13.494,13.207Z" transform="translate(1.713 -5)" fill="#b1b1b1" fill-rule="evenodd"/>
      <path id="Path_37289" data-name="Path 37289" d="M9.741,11.621A3.621,3.621,0,1,1,6.121,8,3.621,3.621,0,0,1,9.741,11.621Zm-1.448,0A2.172,2.172,0,1,1,6.121,9.448,2.172,2.172,0,0,1,8.293,11.621Z" transform="translate(-1.052 -3.655)" fill="#b1b1b1" fill-rule="evenodd"/>
      <path id="Path_37290" data-name="Path 37290" d="M1.5,21.914v-2.9a5.069,5.069,0,0,1,9.31-2.778,6.52,6.52,0,0,1,11.794,0,5.069,5.069,0,0,1,9.31,2.778v2.9a.724.724,0,0,1-.724.724H2.224A.724.724,0,0,1,1.5,21.914Zm1.448-2.9a3.621,3.621,0,1,1,7.241,0V21.19H2.948ZM30.466,21.19V19.017a3.621,3.621,0,1,0-7.241,0V21.19Zm-8.69,0V19.017a5.069,5.069,0,1,0-10.138,0V21.19Z" transform="translate(-1.5 -1.638)" fill="#b1b1b1" fill-rule="evenodd"/>
      <path id="Path_37291" data-name="Path 37291" d="M23.741,11.621A3.621,3.621,0,1,1,20.121,8,3.621,3.621,0,0,1,23.741,11.621Zm-1.448,0a2.172,2.172,0,1,1-2.172-2.172A2.172,2.172,0,0,1,22.293,11.621Z" transform="translate(5.224 -3.655)" fill="#b1b1b1" fill-rule="evenodd"/>
    </g>
  </g>
</svg>
