<svg xmlns="http://www.w3.org/2000/svg" width="521" height="298" viewBox="0 0 521 298">
  <g id="Group_101079" data-name="Group 101079" transform="translate(73 119)">
    <g id="Group_100741" data-name="Group 100741" transform="translate(-73 -47)" opacity="0.1">
      <g id="Rectangle_791" data-name="Rectangle 791" transform="translate(113 85)" fill="none" stroke="#6dc5cb" stroke-width="1">
        <rect width="47" height="46" rx="23" stroke="none"/>
        <rect x="0.5" y="0.5" width="46" height="45" rx="22.5" fill="none"/>
      </g>
      <rect id="Rectangle_796" data-name="Rectangle 796" width="47" height="45" rx="22.5" transform="translate(113 151)" fill="#6dc5cb"/>
      <rect id="Rectangle_794" data-name="Rectangle 794" width="66" height="66" rx="33" transform="translate(94 0)" fill="#6dc5cb"/>
      <g id="Rectangle_798" data-name="Rectangle 798" transform="translate(34 10)" fill="none" stroke="#6dc5cb" stroke-width="1">
        <rect width="57" height="56" rx="28" stroke="none"/>
        <rect x="0.5" y="0.5" width="56" height="55" rx="27.5" fill="none"/>
      </g>
      <rect id="Rectangle_795" data-name="Rectangle 795" width="111" height="110" rx="55" transform="translate(0 96)" fill="#6dc5cb"/>
      <rect id="Rectangle_792" data-name="Rectangle 792" width="45" height="45" rx="22.5" transform="translate(163 43)" fill="#6dc5cb"/>
      <g id="Rectangle_801" data-name="Rectangle 801" transform="translate(214 54)" fill="none" stroke="#6dc5cb" stroke-width="1">
        <rect width="36" height="35" rx="17.5" stroke="none"/>
        <rect x="0.5" y="0.5" width="35" height="34" rx="17" fill="none"/>
      </g>
      <g id="Rectangle_802" data-name="Rectangle 802" transform="translate(311 131)" fill="none" stroke="#6dc5cb" stroke-width="1">
        <rect width="36" height="37" rx="18" stroke="none"/>
        <rect x="0.5" y="0.5" width="35" height="36" rx="17.5" fill="none"/>
      </g>
      <g id="Rectangle_793" data-name="Rectangle 793" transform="translate(163 108)" fill="none" stroke="#6dc5cb" stroke-width="1">
        <rect width="69" height="68" rx="34" stroke="none"/>
        <rect x="0.5" y="0.5" width="68" height="67" rx="33.5" fill="none"/>
      </g>
      <rect id="Rectangle_799" data-name="Rectangle 799" width="68" height="70" rx="34" transform="translate(236 126)" fill="#6dc5cb"/>
      <rect id="Rectangle_800" data-name="Rectangle 800" width="11" height="11" rx="5.5" transform="translate(237 103)" fill="#6dc5cb"/>
      <rect id="Rectangle_797" data-name="Rectangle 797" width="39" height="38" rx="19" transform="translate(174 188)" fill="#6dc5cb"/>
    </g>
    <g id="Group_100742" data-name="Group 100742" transform="translate(101 -119)" opacity="0.1">
      <g id="Rectangle_791-2" data-name="Rectangle 791" transform="translate(187 95)" fill="none" stroke="#6dc5cb" stroke-width="1">
        <rect width="47" height="46" rx="23" stroke="none"/>
        <rect x="0.5" y="0.5" width="46" height="45" rx="22.5" fill="none"/>
      </g>
      <rect id="Rectangle_796-2" data-name="Rectangle 796" width="47" height="45" rx="22.5" transform="translate(187 30)" fill="#6dc5cb"/>
      <rect id="Rectangle_794-2" data-name="Rectangle 794" width="66" height="66" rx="33" transform="translate(187 160)" fill="#6dc5cb"/>
      <g id="Rectangle_798-2" data-name="Rectangle 798" transform="translate(256 160)" fill="none" stroke="#6dc5cb" stroke-width="1">
        <rect width="57" height="56" rx="28" stroke="none"/>
        <rect x="0.5" y="0.5" width="56" height="55" rx="27.5" fill="none"/>
      </g>
      <rect id="Rectangle_795-2" data-name="Rectangle 795" width="111" height="110" rx="55" transform="translate(236 20)" fill="#6dc5cb"/>
      <rect id="Rectangle_792-2" data-name="Rectangle 792" width="45" height="45" rx="22.5" transform="translate(139 138)" fill="#6dc5cb"/>
      <g id="Rectangle_801-2" data-name="Rectangle 801" transform="translate(97 137)" fill="none" stroke="#6dc5cb" stroke-width="1">
        <rect width="36" height="35" rx="17.5" stroke="none"/>
        <rect x="0.5" y="0.5" width="35" height="34" rx="17" fill="none"/>
      </g>
      <g id="Rectangle_802-2" data-name="Rectangle 802" transform="translate(0 58)" fill="none" stroke="#6dc5cb" stroke-width="1">
        <rect width="36" height="37" rx="18" stroke="none"/>
        <rect x="0.5" y="0.5" width="35" height="36" rx="17.5" fill="none"/>
      </g>
      <g id="Rectangle_793-2" data-name="Rectangle 793" transform="translate(115 50)" fill="none" stroke="#6dc5cb" stroke-width="1">
        <rect width="69" height="68" rx="34" stroke="none"/>
        <rect x="0.5" y="0.5" width="68" height="67" rx="33.5" fill="none"/>
      </g>
      <rect id="Rectangle_799-2" data-name="Rectangle 799" width="68" height="70" rx="34" transform="translate(43 30)" fill="#6dc5cb"/>
      <rect id="Rectangle_800-2" data-name="Rectangle 800" width="11" height="11" rx="5.5" transform="translate(99 112)" fill="#6dc5cb"/>
      <rect id="Rectangle_797-2" data-name="Rectangle 797" width="39" height="38" rx="19" transform="translate(134)" fill="#6dc5cb"/>
    </g>
  </g>
</svg>
