<svg xmlns="http://www.w3.org/2000/svg" width="23.139" height="17.33" viewBox="0 0 23.139 17.33">
  <g id="Group_88815" data-name="Group 88815" transform="translate(0 -64.266)">
    <path id="Path_6179" data-name="Path 6179" d="M13.5,177.832a3.48,3.48,0,0,1-3.867,0L.154,171.511C.1,171.476.05,171.44,0,171.4V181.76a2.129,2.129,0,0,0,2.13,2.13H21.008a2.129,2.129,0,0,0,2.13-2.13V171.4c-.05.038-.1.074-.154.109Z" transform="translate(0 -102.294)" fill="#1e0c56"/>
    <path id="Path_6180" data-name="Path 6180" d="M.906,68.089l9.482,6.321a2.125,2.125,0,0,0,2.363,0l9.482-6.321a2.03,2.03,0,0,0,.906-1.694,2.132,2.132,0,0,0-2.129-2.129H2.129A2.132,2.132,0,0,0,0,66.4a2.03,2.03,0,0,0,.906,1.692Z" fill="#1e0c56"/>
  </g>
</svg>
