<svg xmlns="http://www.w3.org/2000/svg" width="25.285" height="23.5" viewBox="0 0 25.285 23.5">
  <g id="Group_89094" data-name="Group 89094" transform="translate(0.25 -16.832)">
    <path id="Path_37287" data-name="Path 37287" d="M5.93,30.028v7.991a2.065,2.065,0,0,1-2.063,2.063h-1.8A2.065,2.065,0,0,1,0,38.019V29.459A2.065,2.065,0,0,1,2.063,27.4c1.913,0,2.114-.047,2.608.162a.413.413,0,0,1-.321.76c-.3-.128-.331-.1-2.287-.1A1.239,1.239,0,0,0,.825,29.459v8.561a1.239,1.239,0,0,0,1.238,1.238h1.8a1.239,1.239,0,0,0,1.238-1.238V29.793a.415.415,0,0,1,.091-.265c.073-.09-.179.067,3.826-2.183a2.479,2.479,0,0,1,2.456.02l4.545,2.654a2.47,2.47,0,0,1-2.074,4.461l-3.942-1.4a.413.413,0,1,1,.277-.777l3.942,1.4a1.645,1.645,0,0,0,1.381-2.971l-4.545-2.654a1.651,1.651,0,0,0-1.635-.014ZM22.9,28.275V18.32a1.239,1.239,0,0,0-1.238-1.238H20.576a.413.413,0,0,0,0,.825h1.083a.413.413,0,0,1,.413.413V28.427c-.119.051.1-.062-3.114,1.677a.413.413,0,1,0,.393.726l2.951-1.6a1.113,1.113,0,0,1,1.19,1.872l-8.061,5.94a2.465,2.465,0,0,1-1.781.463l-5.7-.727a.413.413,0,0,0-.1.818l5.7.727a3.286,3.286,0,0,0,2.375-.617l8.061-5.94A1.944,1.944,0,0,0,22.9,28.275ZM9.283,25.539a.413.413,0,0,0,.413-.413V18.32a.413.413,0,0,1,.413-.413H17.74v3.936l-1.708-.66a.412.412,0,0,0-.3,0l-1.708.66V19.815a.413.413,0,0,0-.825,0v2.63a.413.413,0,0,0,.561.385l2.12-.819a13.682,13.682,0,0,0,2.269.847.413.413,0,0,0,.413-.413V17.495a.413.413,0,0,0-.413-.413H10.108A1.239,1.239,0,0,0,8.87,18.32v6.807A.413.413,0,0,0,9.283,25.539Z" fill="#b1b1b1" stroke="#b1b1b1" stroke-width="0.5"/>
  </g>
</svg>
