<svg xmlns="http://www.w3.org/2000/svg" width="22.911" height="21.412" viewBox="0 0 22.911 21.412">
  <g id="Group_88805" data-name="Group 88805" transform="translate(-1 -2)">
    <g id="Group_88805-2" data-name="Group 88805" transform="translate(1 2)">
      <path id="Path_6168" data-name="Path 6168" d="M21.413,2H19.272V4.141a.714.714,0,0,1-1.427,0V2H6.424V4.141A.714.714,0,1,1,5,4.141V2H2.856A1.966,1.966,0,0,0,1,4.141V6.711H23.84V4.141A2.408,2.408,0,0,0,21.413,2ZM1,8.21V21.271a1.937,1.937,0,0,0,1.927,2.141H21.484a2.408,2.408,0,0,0,2.427-2.141V8.21ZM7.352,20.2H5.639a.563.563,0,0,1-.571-.571V17.845a.563.563,0,0,1,.571-.571H7.424a.563.563,0,0,1,.571.571v1.784A.625.625,0,0,1,7.352,20.2Zm0-6.424H5.639a.563.563,0,0,1-.571-.571V11.421a.563.563,0,0,1,.571-.571H7.424a.563.563,0,0,1,.571.571v1.784A.625.625,0,0,1,7.352,13.777Zm5.71,6.424H11.278a.563.563,0,0,1-.571-.571V17.845a.563.563,0,0,1,.571-.571h1.784a.563.563,0,0,1,.571.571v1.784A.525.525,0,0,1,13.062,20.2Zm0-6.424H11.278a.563.563,0,0,1-.571-.571V11.421a.563.563,0,0,1,.571-.571h1.784a.563.563,0,0,1,.571.571v1.784A.525.525,0,0,1,13.062,13.777Zm5.71,6.424H16.988a.563.563,0,0,1-.571-.571V17.845a.563.563,0,0,1,.571-.571h1.784a.563.563,0,0,1,.571.571v1.784A.525.525,0,0,1,18.772,20.2Zm0-6.424H16.988a.563.563,0,0,1-.571-.571V11.421a.563.563,0,0,1,.571-.571h1.784a.563.563,0,0,1,.571.571v1.784A.525.525,0,0,1,18.772,13.777Z" transform="translate(-1 -2)" fill="#1e0c56"/>
    </g>
  </g>
</svg>
