<svg xmlns="http://www.w3.org/2000/svg" width="21.153" height="21.197" viewBox="0 0 21.153 21.197">
  <g id="Group_89115" data-name="Group 89115" transform="translate(0)">
    <g id="Group_88818" data-name="Group 88818" transform="translate(0 0)">
      <g id="Group_88817" data-name="Group 88817" transform="translate(0 0)">
        <path id="Path_6182" data-name="Path 6182" d="M1.094,15.557,4.052,12.6a1.968,1.968,0,0,1,3.275.74,2.013,2.013,0,0,0,2.324,1.268,9.122,9.122,0,0,0,5.494-5.494,1.915,1.915,0,0,0-1.268-2.324,1.968,1.968,0,0,1-.74-3.275L16.1.555a2.11,2.11,0,0,1,2.852,0l2.007,2.007c2.007,2.113-.211,7.712-5.177,12.678S5.214,22.529,3.1,20.416L1.094,18.409A2.11,2.11,0,0,1,1.094,15.557Z" transform="translate(-0.539 0)" fill="#1e0c56"/>
      </g>
    </g>
  </g>
</svg>
