<svg xmlns="http://www.w3.org/2000/svg" width="24.368" height="31.208" viewBox="0 0 24.368 31.208">
  <g id="Group_88796" data-name="Group 88796" transform="translate(-56)">
    <g id="Group_88801" data-name="Group 88801" transform="translate(56)">
      <circle id="Ellipse_85" data-name="Ellipse 85" cx="11.726" cy="11.726" r="11.726" transform="translate(0.458 7.298)" fill="#1e0c56"/>
      <g id="Group_88798" data-name="Group 88798" transform="translate(9.741 21.497)">
        <g id="Group_88796-2" data-name="Group 88796">
          <path id="Path_6155" data-name="Path 6155" d="M215.5,352h.977v.916H215.5Z" transform="translate(-215.5 -352)" fill="#1e0c56"/>
        </g>
        <g id="Group_88797" data-name="Group 88797" transform="translate(3.909)">
          <path id="Path_6156" data-name="Path 6156" d="M279.5,352h.977v.916H279.5Z" transform="translate(-279.5 -352)" fill="#1e0c56"/>
        </g>
      </g>
      <g id="Group_88800" data-name="Group 88800" transform="translate(0)">
        <path id="Path_6158" data-name="Path 6158" d="M171.226,13.363c0,4.886-5.863,9.772-5.863,9.772s-5.863-4.886-5.863-9.772a5.863,5.863,0,0,1,11.726,0Z" transform="translate(-153.179 -7.042)" fill="#1e0c56"/>
        <path id="Path_6159" data-name="Path 6159" d="M247.989,7.5c-.165,0-.327.007-.489.02a5.863,5.863,0,0,1,5.374,5.843c0,4.019-3.967,8.038-5.374,9.337.3.28.489.435.489.435s5.863-4.886,5.863-9.772A5.863,5.863,0,0,0,247.989,7.5Z" transform="translate(-235.805 -7.042)" fill="#1e0c56"/>
        <path id="Path_6160" data-name="Path 6160" d="M247.989,39.5a3.933,3.933,0,0,0-.489.032,3.908,3.908,0,0,1,0,7.754,3.908,3.908,0,1,0,.489-7.786Z" transform="translate(-235.805 -37.088)" fill="#1e0c56"/>
        <path id="Path_6161" data-name="Path 6161" d="M199.793,39.5a3.909,3.909,0,0,0-3.623,2.443h7.247A3.909,3.909,0,0,0,199.793,39.5Z" transform="translate(-187.61 -37.088)" fill="#1e0c56"/>
        <path id="Path_6162" data-name="Path 6162" d="M247.989,39.5a3.945,3.945,0,0,0-.489.031,3.912,3.912,0,0,1,3.135,2.412h.977A3.909,3.909,0,0,0,247.989,39.5Z" transform="translate(-235.805 -37.088)" fill="#1e0c56"/>
        <path id="Path_6163" data-name="Path 6163" d="M199.793,129.943a3.909,3.909,0,0,0,3.623-2.443H196.17A3.909,3.909,0,0,0,199.793,129.943Z" transform="translate(-187.61 -119.713)" fill="#1e0c56"/>
        <path id="Path_6164" data-name="Path 6164" d="M250.635,127.5a3.912,3.912,0,0,1-3.135,2.412,3.907,3.907,0,0,0,4.112-2.412Z" transform="translate(-235.805 -119.713)" fill="#1e0c56"/>
        <g id="Group_88799" data-name="Group 88799">
          <path id="Path_6165" data-name="Path 6165" d="M247.5,352h.977v.916H247.5Z" transform="translate(-235.805 -330.503)" fill="#1e0c56"/>
          <path id="Path_6166" data-name="Path 6166" d="M78.982,13.376a12.289,12.289,0,0,0-3.691-4.249l-.535.744A11.384,11.384,0,0,1,77.512,12.7H74.437a13.381,13.381,0,0,0-1.056-2.261A9.029,9.029,0,0,0,74.5,6.321a6.321,6.321,0,1,0-12.642,0,9.028,9.028,0,0,0,1.124,4.121A13.383,13.383,0,0,0,61.931,12.7H58.856a11.384,11.384,0,0,1,2.755-2.832l-.535-.744a12.181,12.181,0,1,0,17.906,4.249ZM67.726,30.263c-1.488-.19-2.888-1.3-3.983-3.178a12.32,12.32,0,0,1-.833-1.74h4.816Zm.916,0V25.345h4.816a12.317,12.317,0,0,1-.833,1.74C71.53,28.961,70.13,30.073,68.642,30.263Zm0-5.834V23.421h-.916v1.008H62.589a17.994,17.994,0,0,1-.782-4.947h5.918V20.49h.916V19.482H74.56a17.994,17.994,0,0,1-.782,4.947ZM56.926,19.482h3.965a19.088,19.088,0,0,0,.741,4.947H58.3A11.19,11.19,0,0,1,56.926,19.482Zm8.208-5.863A24.375,24.375,0,0,0,67.726,16.3v2.263H61.808a18.171,18.171,0,0,1,.788-4.947Zm6.1,0h2.539a18.172,18.172,0,0,1,.788,4.947H68.642V16.3A24.374,24.374,0,0,0,71.233,13.619Zm4.243,5.863h3.965a11.19,11.19,0,0,1-1.373,4.947H74.735A19.088,19.088,0,0,0,75.477,19.482Zm2.6-5.863c.033.061.067.121.1.182a11.287,11.287,0,0,1,1.27,4.765H75.477a19.052,19.052,0,0,0-.739-4.947ZM73.454,12.7h-1.5q.5-.672.9-1.327A12.627,12.627,0,0,1,73.454,12.7ZM68.184.916a5.411,5.411,0,0,1,5.4,5.4c0,4-4.239,8.108-5.405,9.162-1.166-1.053-5.4-5.159-5.4-9.162A5.411,5.411,0,0,1,68.184.916Zm-4.669,10.46q.4.655.9,1.327h-1.5A12.628,12.628,0,0,1,63.515,11.376ZM58.2,13.8c.032-.061.066-.121.1-.182H61.63a19.052,19.052,0,0,0-.739,4.947H56.927A11.287,11.287,0,0,1,58.2,13.8Zm.664,11.544h3.072a13.45,13.45,0,0,0,1.019,2.2,9.216,9.216,0,0,0,1.723,2.185A11.319,11.319,0,0,1,58.861,25.345Zm12.833,4.386a9.217,9.217,0,0,0,1.723-2.185,13.459,13.459,0,0,0,1.019-2.2h3.072A11.319,11.319,0,0,1,71.694,29.731Z" transform="translate(-56)" fill="#1e0c56"/>
          <path id="Path_6167" data-name="Path 6167" d="M192.733,36.367a4.367,4.367,0,1,0-4.367,4.367A4.372,4.372,0,0,0,192.733,36.367Zm-4.367-3.451a3.45,3.45,0,0,1,2.863,1.527H185.5A3.45,3.45,0,0,1,188.367,32.916Zm-3.3,2.443h6.6a3.449,3.449,0,0,1,0,2.015h-6.6a3.449,3.449,0,0,1,0-2.015Zm.437,2.931h5.726a3.448,3.448,0,0,1-5.726,0Z" transform="translate(-176.183 -30.046)" fill="#1e0c56"/>
        </g>
      </g>
    </g>
  </g>
</svg>
