<svg id="Group_89118" data-name="Group 89118" xmlns="http://www.w3.org/2000/svg" width="24" height="24" viewBox="0 0 24 24">
  <g id="Group_89117" data-name="Group 89117">
    <path id="Path_37311" data-name="Path 37311" d="M5.625,102.585v2.93H3.516a.7.7,0,0,0,0,1.406H5.625v2.156a.7.7,0,0,0,1.406,0v-2.156H9.141a.7.7,0,0,0,0-1.406H7.031v-2.928a6.738,6.738,0,0,0,1.388-.315,7.8,7.8,0,0,1-1.1-1.124,4.922,4.922,0,1,1-.993-9.743,4.988,4.988,0,0,1,4.922,4.922,4.858,4.858,0,0,1-.57,2.249,3.515,3.515,0,0,0,1.114.882,6.253,6.253,0,0,0,.862-3.131A6.328,6.328,0,0,0,0,96.328,6.314,6.314,0,0,0,5.625,102.585Z" transform="translate(0 -85.781)" fill="#1e0c56"/>
    <path id="Path_37312" data-name="Path 37312" d="M166.266,0h-4.219a.7.7,0,0,0,0,1.406h2.521l-4.312,4.218A6.092,6.092,0,0,0,154.237,4.6a7.8,7.8,0,0,1,1.1,1.124,4.922,4.922,0,1,1,.993,9.743,4.983,4.983,0,0,1-4.922-4.922,4.858,4.858,0,0,1,.57-2.249,3.515,3.515,0,0,0-1.114-.882A6.253,6.253,0,0,0,150,10.547a6.407,6.407,0,0,0,6.328,6.328,6.335,6.335,0,0,0,6.328-6.328,6.264,6.264,0,0,0-1.406-3.928L165.563,2.4V4.922a.7.7,0,0,0,1.406,0V.7a.706.706,0,0,0-.7-.7Z" transform="translate(-142.969)" fill="#1e0c56"/>
  </g>
</svg>
