<svg xmlns="http://www.w3.org/2000/svg" width="27.008" height="30" viewBox="0 0 27.008 30">
  <g id="Group_100706" data-name="Group 100706" transform="translate(-21.277)">
    <g id="Group_100705" data-name="Group 100705" transform="translate(21.277)">
      <g id="Group_100704" data-name="Group 100704" transform="translate(0)">
        <g id="Group_100703" data-name="Group 100703">
          <path id="Path_50725" data-name="Path 50725" d="M95.35,168.854a11.881,11.881,0,0,1-1.387-5.782,7.01,7.01,0,0,1,13.995,0,.75.75,0,0,0,1.5,0,8.508,8.508,0,0,0-17,0,13.348,13.348,0,0,0,1.583,6.517,15.717,15.717,0,0,0,3.015,3.952.744.744,0,0,0,.532.225.673.673,0,0,0,.518-.225.74.74,0,0,0,.008-1.057A14.217,14.217,0,0,1,95.35,168.854Z" transform="translate(-87.457 -144.089)" fill="#fff"/>
          <path id="Path_50726" data-name="Path 50726" d="M80.014,3.615a17.533,17.533,0,0,1,16.71.008.8.8,0,0,0,.345.082h0a.75.75,0,0,0,.345-1.417,19.058,19.058,0,0,0-18.12.008.752.752,0,1,0,.72,1.32Z" transform="translate(-74.851)" fill="#fff"/>
          <path id="Path_50727" data-name="Path 50727" d="M50.035,103.04a12.458,12.458,0,0,0-11.265,6.893,11.106,11.106,0,0,0-1.027,4.852,16.7,16.7,0,0,0,1.095,5.932.752.752,0,0,0,1.41-.525,14.964,14.964,0,0,1-1-5.407,9.635,9.635,0,0,1,.877-4.207,10.942,10.942,0,0,1,9.915-6.045c5.993,0,10.867,4.6,10.867,10.252a3.127,3.127,0,0,1-6.24,0,4.625,4.625,0,0,0-9.24,0,10.981,10.981,0,0,0,3.248,7.83,11.456,11.456,0,0,0,5.572,3.15.559.559,0,0,0,.195.03.748.748,0,0,0,.195-1.47,10.119,10.119,0,0,1-4.913-2.767,9.49,9.49,0,0,1-2.8-6.765,3.127,3.127,0,0,1,6.24,0,4.625,4.625,0,0,0,9.24,0C62.4,108.313,56.853,103.04,50.035,103.04Z" transform="translate(-36.585 -95.795)" fill="#fff"/>
          <path id="Path_50728" data-name="Path 50728" d="M48.145,58.706a15.692,15.692,0,0,0-5.625-4.875,17.307,17.307,0,0,0-15.472.015,15.622,15.622,0,0,0-5.633,4.913A.747.747,0,0,0,21.6,59.8a.782.782,0,0,0,.435.135.764.764,0,0,0,.615-.307,14.085,14.085,0,0,1,5.093-4.447,15.782,15.782,0,0,1,14.1-.015,14.082,14.082,0,0,1,5.085,4.41.754.754,0,0,0,1.05.172A.745.745,0,0,0,48.145,58.706Z" transform="translate(-21.277 -48.356)" fill="#fff"/>
          <path id="Path_50729" data-name="Path 50729" d="M211.255,266.433a9.847,9.847,0,0,1-1.567.143,6.49,6.49,0,0,1-6.713-6.413.75.75,0,1,0-1.5,0,8,8,0,0,0,3.563,6.585,8.147,8.147,0,0,0,4.65,1.328,10.742,10.742,0,0,0,1.83-.165.75.75,0,1,0-.262-1.477Z" transform="translate(-188.805 -241.173)" fill="#fff"/>
        </g>
      </g>
    </g>
  </g>
</svg>
