<svg xmlns="http://www.w3.org/2000/svg" width="22.998" height="23" viewBox="0 0 22.998 23">
  <path id="Path_37286" data-name="Path 37286" d="M22.88,10l0,0L13.5.62A2.117,2.117,0,0,0,10.5.62L1.124,10l-.009.01a2.116,2.116,0,0,0,1.409,3.607c.022,0,.044,0,.065,0h.374v6.9A2.481,2.481,0,0,0,5.441,23H9.112a.674.674,0,0,0,.674-.674V16.912a1.132,1.132,0,0,1,1.131-1.131h2.165a1.132,1.132,0,0,1,1.131,1.131v5.413a.674.674,0,0,0,.674.674h3.671a2.481,2.481,0,0,0,2.478-2.478v-6.9h.347A2.118,2.118,0,0,0,22.88,10Zm-.954,2.04a.765.765,0,0,1-.544.226H20.361a.674.674,0,0,0-.674.674v7.578a1.132,1.132,0,0,1-1.131,1.13h-3V16.912a2.481,2.481,0,0,0-2.478-2.478H10.916a2.481,2.481,0,0,0-2.478,2.478v4.739h-3a1.132,1.132,0,0,1-1.131-1.13V12.943a.674.674,0,0,0-.674-.674H2.6a.769.769,0,0,1-.53-1.313h0l9.382-9.381a.769.769,0,0,1,1.088,0l9.38,9.38,0,0a.771.771,0,0,1,0,1.087Zm0,0" transform="translate(-0.5 0.001)" fill="#b1b1b1"/>
</svg>
